<svg width="20" height="20" viewBox="0 0 20 20" fill="none" xmlns="http://www.w3.org/2000/svg">
<path d="M9.95394 2.25418C12.4748 2.25418 12.7498 2.25418 13.7581 2.30002C14.6748 2.34585 15.1789 2.48335 15.4998 2.62085C15.9123 2.75835 16.2789 3.03335 16.5998 3.30835C16.9206 3.62918 17.1498 3.99585 17.2873 4.40835C17.4248 4.72918 17.5623 5.23335 17.6081 6.15001C17.6539 7.15835 17.6539 7.43335 17.6539 9.95418C17.6539 12.475 17.6539 12.75 17.6081 13.7583C17.5623 14.675 17.4248 15.1792 17.2873 15.5C16.9664 16.325 16.3248 16.9667 15.4998 17.2875C15.1789 17.425 14.6748 17.5625 13.7581 17.6083C12.7498 17.6542 12.4748 17.6542 9.95394 17.6542C7.4331 17.6542 7.1581 17.6542 6.14977 17.6083C5.23311 17.5625 4.72894 17.425 4.4081 17.2875C3.9956 17.15 3.62894 16.875 3.3081 16.6C2.98727 16.2792 2.75811 15.9125 2.62061 15.5C2.48311 15.1792 2.34561 14.675 2.29977 13.7583C2.25394 12.75 2.25394 12.475 2.25394 9.95418C2.25394 7.43335 2.25394 7.15835 2.29977 6.15001C2.34561 5.23335 2.48311 4.72918 2.62061 4.40835C2.75811 3.99585 3.0331 3.62918 3.3081 3.30835C3.62894 2.98751 3.9956 2.75835 4.4081 2.62085C4.72894 2.48335 5.23311 2.34585 6.14977 2.30002C7.1581 2.25418 7.47894 2.25418 9.95394 2.25418ZM9.95394 0.55835C7.38727 0.55835 7.06644 0.55835 6.0581 0.604183C5.04977 0.650016 4.36227 0.787516 3.76644 1.06252C3.1706 1.29168 2.62061 1.65835 2.16227 2.11668C1.70394 2.57502 1.29144 3.17085 1.06227 3.76668C0.833105 4.36251 0.649772 5.05001 0.603939 6.05835C0.558105 7.06668 0.558105 7.38751 0.558105 9.95418C0.558105 12.5208 0.558105 12.8417 0.603939 13.85C0.649772 14.8583 0.787272 15.5458 1.06227 16.1417C1.29144 16.7375 1.65811 17.3333 2.16227 17.7917C2.62061 18.25 3.21644 18.6625 3.81227 18.8917C4.4081 19.1208 5.0956 19.3042 6.10394 19.35C7.11227 19.3958 7.4331 19.3958 9.99977 19.3958C12.5664 19.3958 12.8873 19.3958 13.8956 19.35C14.9039 19.3042 15.5914 19.1667 16.1873 18.8917C17.4706 18.3875 18.4331 17.425 18.9373 16.1417C19.1664 15.5458 19.3498 14.8583 19.3956 13.85C19.4414 12.8417 19.4414 12.5208 19.4414 9.95418C19.4414 7.38751 19.4414 7.06668 19.3956 6.05835C19.3498 5.05001 19.2123 4.36251 18.9373 3.76668C18.7081 3.12501 18.3414 2.57502 17.8373 2.11668C17.3789 1.65835 16.7831 1.24585 16.1873 1.01668C15.5914 0.787516 14.9039 0.604183 13.8956 0.55835C12.8414 0.55835 12.5206 0.55835 9.95394 0.55835Z" fill="#2B2B39"/>
<path d="M9.95264 5.1416C7.2943 5.1416 5.14014 7.29577 5.14014 9.9541C5.14014 12.6124 7.2943 14.7666 9.95264 14.7666C12.611 14.7666 14.7651 12.6124 14.7651 9.9541C14.811 7.29577 12.6568 5.1416 9.95264 5.1416ZM9.95264 13.1166C8.21097 13.1166 6.83597 11.6958 6.83597 9.99994C6.83597 8.25827 8.25681 6.88327 9.95264 6.88327C11.6943 6.88327 13.0693 8.3041 13.0693 9.99994C13.1151 11.6958 11.6943 13.1166 9.95264 13.1166Z" fill="#2B2B39"/>
<path d="M14.9969 6.10417C15.6297 6.10417 16.1427 5.59116 16.1427 4.95833C16.1427 4.32551 15.6297 3.8125 14.9969 3.8125C14.3641 3.8125 13.8511 4.32551 13.8511 4.95833C13.8511 5.59116 14.3641 6.10417 14.9969 6.10417Z" fill="#2B2B39"/>
</svg>
