<svg width="323" height="68" viewBox="0 0 323 68" fill="none" xmlns="http://www.w3.org/2000/svg">
<circle cx="315.9" cy="6.5" r="6.5" transform="rotate(90 315.9 6.5)" fill="#BCB8B6" fill-opacity="0.1"/>
<circle cx="315.9" cy="24.6998" r="6.5" transform="rotate(90 315.9 24.6998)" fill="#BCB8B6" fill-opacity="0.1"/>
<circle cx="315.9" cy="42.8998" r="6.5" transform="rotate(90 315.9 42.8998)" fill="#BCB8B6" fill-opacity="0.1"/>
<circle cx="315.9" cy="61.0998" r="6.5" transform="rotate(90 315.9 61.0998)" fill="#BCB8B6" fill-opacity="0.1"/>
<circle cx="297.7" cy="6.4998" r="6.5" transform="rotate(90 297.7 6.4998)" fill="#BCB8B6" fill-opacity="0.1"/>
<circle cx="279.5" cy="6.4998" r="6.5" transform="rotate(90 279.5 6.4998)" fill="#BCB8B6" fill-opacity="0.1"/>
<circle cx="261.3" cy="6.4998" r="6.5" transform="rotate(90 261.3 6.4998)" fill="#BCB8B6" fill-opacity="0.1"/>
<circle cx="243.1" cy="6.4998" r="6.5" transform="rotate(90 243.1 6.4998)" fill="#BCB8B6" fill-opacity="0.1"/>
<circle cx="224.9" cy="6.4998" r="6.5" transform="rotate(90 224.9 6.4998)" fill="#BCB8B6" fill-opacity="0.1"/>
<circle cx="206.7" cy="6.4998" r="6.5" transform="rotate(90 206.7 6.4998)" fill="#BCB8B6" fill-opacity="0.1"/>
<circle cx="188.5" cy="6.4998" r="6.5" transform="rotate(90 188.5 6.4998)" fill="#BCB8B6" fill-opacity="0.1"/>
<circle cx="170.3" cy="6.4998" r="6.5" transform="rotate(90 170.3 6.4998)" fill="#BCB8B6" fill-opacity="0.1"/>
<circle cx="152.1" cy="6.49979" r="6.5" transform="rotate(90 152.1 6.49979)" fill="#BCB8B6" fill-opacity="0.1"/>
<circle cx="133.9" cy="6.49979" r="6.5" transform="rotate(90 133.9 6.49979)" fill="#BCB8B6" fill-opacity="0.1"/>
<circle cx="115.7" cy="6.49979" r="6.5" transform="rotate(90 115.7 6.49979)" fill="#BCB8B6" fill-opacity="0.1"/>
<circle cx="97.5" cy="6.49979" r="6.5" transform="rotate(90 97.5 6.49979)" fill="#BCB8B6" fill-opacity="0.1"/>
<circle cx="79.2998" cy="6.49979" r="6.5" transform="rotate(90 79.2998 6.49979)" fill="#BCB8B6" fill-opacity="0.1"/>
<circle cx="61.1001" cy="6.49979" r="6.5" transform="rotate(90 61.1001 6.49979)" fill="#BCB8B6" fill-opacity="0.1"/>
<circle cx="42.8999" cy="6.49979" r="6.5" transform="rotate(90 42.8999 6.49979)" fill="#BCB8B6" fill-opacity="0.1"/>
<circle cx="24.7002" cy="6.49979" r="6.5" transform="rotate(90 24.7002 6.49979)" fill="#BCB8B6" fill-opacity="0.1"/>
<circle cx="6.5" cy="6.49979" r="6.5" transform="rotate(90 6.5 6.49979)" fill="#BCB8B6" fill-opacity="0.1"/>
<circle cx="297.7" cy="24.6998" r="6.5" transform="rotate(90 297.7 24.6998)" fill="#BCB8B6" fill-opacity="0.1"/>
<circle cx="279.5" cy="24.6998" r="6.5" transform="rotate(90 279.5 24.6998)" fill="#BCB8B6" fill-opacity="0.1"/>
<circle cx="261.3" cy="24.6998" r="6.5" transform="rotate(90 261.3 24.6998)" fill="#BCB8B6" fill-opacity="0.1"/>
<circle cx="243.1" cy="24.6998" r="6.5" transform="rotate(90 243.1 24.6998)" fill="#BCB8B6" fill-opacity="0.1"/>
<circle cx="224.9" cy="24.6998" r="6.5" transform="rotate(90 224.9 24.6998)" fill="#BCB8B6" fill-opacity="0.1"/>
<circle cx="206.7" cy="24.6998" r="6.5" transform="rotate(90 206.7 24.6998)" fill="#BCB8B6" fill-opacity="0.1"/>
<circle cx="188.5" cy="24.6998" r="6.5" transform="rotate(90 188.5 24.6998)" fill="#BCB8B6" fill-opacity="0.1"/>
<circle cx="170.3" cy="24.6998" r="6.5" transform="rotate(90 170.3 24.6998)" fill="#BCB8B6" fill-opacity="0.1"/>
<circle cx="152.1" cy="24.6998" r="6.5" transform="rotate(90 152.1 24.6998)" fill="#BCB8B6" fill-opacity="0.1"/>
<circle cx="133.9" cy="24.6998" r="6.5" transform="rotate(90 133.9 24.6998)" fill="#BCB8B6" fill-opacity="0.1"/>
<circle cx="115.7" cy="24.6998" r="6.5" transform="rotate(90 115.7 24.6998)" fill="#BCB8B6" fill-opacity="0.1"/>
<circle cx="97.5" cy="24.6998" r="6.5" transform="rotate(90 97.5 24.6998)" fill="#BCB8B6" fill-opacity="0.1"/>
<circle cx="79.2998" cy="24.6998" r="6.5" transform="rotate(90 79.2998 24.6998)" fill="#BCB8B6" fill-opacity="0.1"/>
<circle cx="61.1001" cy="24.6998" r="6.5" transform="rotate(90 61.1001 24.6998)" fill="#BCB8B6" fill-opacity="0.1"/>
<circle cx="42.8999" cy="24.6998" r="6.5" transform="rotate(90 42.8999 24.6998)" fill="#BCB8B6" fill-opacity="0.1"/>
<circle cx="24.6997" cy="24.6998" r="6.5" transform="rotate(90 24.6997 24.6998)" fill="#BCB8B6" fill-opacity="0.1"/>
<circle cx="6.5" cy="24.6998" r="6.5" transform="rotate(90 6.5 24.6998)" fill="#BCB8B6" fill-opacity="0.1"/>
<circle cx="297.7" cy="42.8998" r="6.5" transform="rotate(90 297.7 42.8998)" fill="#BCB8B6" fill-opacity="0.1"/>
<circle cx="279.5" cy="42.8998" r="6.5" transform="rotate(90 279.5 42.8998)" fill="#BCB8B6" fill-opacity="0.1"/>
<circle cx="261.3" cy="42.8998" r="6.5" transform="rotate(90 261.3 42.8998)" fill="#BCB8B6" fill-opacity="0.1"/>
<circle cx="243.1" cy="42.8998" r="6.5" transform="rotate(90 243.1 42.8998)" fill="#BCB8B6" fill-opacity="0.1"/>
<circle cx="224.9" cy="42.8998" r="6.5" transform="rotate(90 224.9 42.8998)" fill="#BCB8B6" fill-opacity="0.1"/>
<circle cx="206.7" cy="42.8998" r="6.5" transform="rotate(90 206.7 42.8998)" fill="#BCB8B6" fill-opacity="0.1"/>
<circle cx="188.5" cy="42.8998" r="6.5" transform="rotate(90 188.5 42.8998)" fill="#BCB8B6" fill-opacity="0.1"/>
<circle cx="170.3" cy="42.8998" r="6.5" transform="rotate(90 170.3 42.8998)" fill="#BCB8B6" fill-opacity="0.1"/>
<circle cx="152.1" cy="42.8998" r="6.5" transform="rotate(90 152.1 42.8998)" fill="#BCB8B6" fill-opacity="0.1"/>
<circle cx="133.9" cy="42.8998" r="6.5" transform="rotate(90 133.9 42.8998)" fill="#BCB8B6" fill-opacity="0.1"/>
<circle cx="115.7" cy="42.8998" r="6.5" transform="rotate(90 115.7 42.8998)" fill="#BCB8B6" fill-opacity="0.1"/>
<circle cx="97.5" cy="42.8998" r="6.5" transform="rotate(90 97.5 42.8998)" fill="#BCB8B6" fill-opacity="0.1"/>
<circle cx="79.2998" cy="42.8998" r="6.5" transform="rotate(90 79.2998 42.8998)" fill="#BCB8B6" fill-opacity="0.1"/>
<circle cx="61.1001" cy="42.8998" r="6.5" transform="rotate(90 61.1001 42.8998)" fill="#BCB8B6" fill-opacity="0.1"/>
<circle cx="42.8999" cy="42.8998" r="6.5" transform="rotate(90 42.8999 42.8998)" fill="#BCB8B6" fill-opacity="0.1"/>
<circle cx="24.6997" cy="42.8998" r="6.5" transform="rotate(90 24.6997 42.8998)" fill="#BCB8B6" fill-opacity="0.1"/>
<circle cx="6.5" cy="42.8998" r="6.5" transform="rotate(90 6.5 42.8998)" fill="#BCB8B6" fill-opacity="0.1"/>
<circle cx="297.7" cy="61.0998" r="6.5" transform="rotate(90 297.7 61.0998)" fill="#BCB8B6" fill-opacity="0.1"/>
<circle cx="279.5" cy="61.0998" r="6.5" transform="rotate(90 279.5 61.0998)" fill="#BCB8B6" fill-opacity="0.1"/>
<circle cx="261.3" cy="61.0998" r="6.5" transform="rotate(90 261.3 61.0998)" fill="#BCB8B6" fill-opacity="0.1"/>
<circle cx="243.1" cy="61.0998" r="6.5" transform="rotate(90 243.1 61.0998)" fill="#BCB8B6" fill-opacity="0.1"/>
<circle cx="224.9" cy="61.0998" r="6.5" transform="rotate(90 224.9 61.0998)" fill="#BCB8B6" fill-opacity="0.1"/>
<circle cx="206.7" cy="61.0998" r="6.5" transform="rotate(90 206.7 61.0998)" fill="#BCB8B6" fill-opacity="0.1"/>
<circle cx="188.5" cy="61.0998" r="6.5" transform="rotate(90 188.5 61.0998)" fill="#BCB8B6" fill-opacity="0.1"/>
<circle cx="170.3" cy="61.0998" r="6.5" transform="rotate(90 170.3 61.0998)" fill="#BCB8B6" fill-opacity="0.1"/>
<circle cx="152.1" cy="61.0998" r="6.5" transform="rotate(90 152.1 61.0998)" fill="#BCB8B6" fill-opacity="0.1"/>
<circle cx="133.9" cy="61.0998" r="6.5" transform="rotate(90 133.9 61.0998)" fill="#BCB8B6" fill-opacity="0.1"/>
<circle cx="115.7" cy="61.0998" r="6.5" transform="rotate(90 115.7 61.0998)" fill="#BCB8B6" fill-opacity="0.1"/>
<circle cx="97.5" cy="61.0998" r="6.5" transform="rotate(90 97.5 61.0998)" fill="#BCB8B6" fill-opacity="0.1"/>
<circle cx="79.2998" cy="61.0998" r="6.5" transform="rotate(90 79.2998 61.0998)" fill="#BCB8B6" fill-opacity="0.1"/>
<circle cx="61.1001" cy="61.0998" r="6.5" transform="rotate(90 61.1001 61.0998)" fill="#BCB8B6" fill-opacity="0.1"/>
<circle cx="42.8999" cy="61.0998" r="6.5" transform="rotate(90 42.8999 61.0998)" fill="#BCB8B6" fill-opacity="0.1"/>
<circle cx="24.6997" cy="61.0998" r="6.5" transform="rotate(90 24.6997 61.0998)" fill="#BCB8B6" fill-opacity="0.1"/>
<circle cx="6.5" cy="61.0998" r="6.5" transform="rotate(90 6.5 61.0998)" fill="#BCB8B6" fill-opacity="0.1"/>
</svg>
